# xmcd CD database file
#
# Track frame offsets:
#	150
#	22174
#	41225
#	73220
#	99151
#	118609
#	147924
#	164084
#	190452
#
# Disc length: 2747 seconds
#
# Revision: 0
# Processed by: cddbd v1.4PL0 Copyright (c) Steve Scherf et al.
# Submitted via: CDex 1.50
#
DISCID=890ab909
DTITLE=Ellis Mario - You are the one
DYEAR=2003
DGENRE=Jazz
TTITLE0=O Preto
TTITLE1=A letter from my brother
TTITLE2=You are the one
TTITLE3=Stela
TTITLE4=I was alone
TTITLE5=A Branca
TTITLE6=Sushi
TTITLE7=Where have you been?
TTITLE8=Do Ellis
EXTD=YEAR: 2003
EXTT0=
EXTT1=
EXTT2=
EXTT3=
EXTT4=
EXTT5=
EXTT6=
EXTT7=
EXTT8=
PLAYORDER=
